<svg width="85" height="85" viewBox="0 0 85 85" fill="none" xmlns="http://www.w3.org/2000/svg">
<path d="M13.8083 25.3867C13.8083 25.871 13.6972 26.3155 13.4749 26.7203C13.2526 27.1173 12.9113 27.4388 12.4509 27.6848C11.9904 27.9309 11.4189 28.054 10.7362 28.054H9.47402V31.0546H7.43787V22.6957H10.7362C11.403 22.6957 11.9666 22.8108 12.427 23.041C12.8875 23.2712 13.2328 23.5887 13.463 23.9936C13.6932 24.3984 13.8083 24.8628 13.8083 25.3867ZM10.5814 26.4346C10.9704 26.4346 11.2601 26.3433 11.4506 26.1607C11.6412 25.9781 11.7364 25.7201 11.7364 25.3867C11.7364 25.0533 11.6412 24.7953 11.4506 24.6128C11.2601 24.4302 10.9704 24.3389 10.5814 24.3389H9.47402V26.4346H10.5814Z" fill="currentColor"/>
<path d="M19.1311 31.0546L17.3927 27.8992H16.9045V31.0546H14.8683V22.6957H18.2857C18.9446 22.6957 19.5042 22.8108 19.9647 23.041C20.433 23.2712 20.7823 23.5887 21.0125 23.9936C21.2427 24.3905 21.3578 24.835 21.3578 25.3272C21.3578 25.8829 21.199 26.379 20.8815 26.8156C20.5719 27.2522 20.1115 27.5618 19.5003 27.7444L21.4293 31.0546H19.1311ZM16.9045 26.4584H18.1666C18.5397 26.4584 18.8176 26.3671 19.0002 26.1845C19.1907 26.0019 19.2859 25.7439 19.2859 25.4105C19.2859 25.093 19.1907 24.843 19.0002 24.6604C18.8176 24.4778 18.5397 24.3865 18.1666 24.3865H16.9045V26.4584Z" fill="currentColor"/>
<path d="M26.5892 31.138C25.8033 31.138 25.081 30.9554 24.4221 30.5902C23.7712 30.2251 23.2512 29.717 22.8622 29.0661C22.4812 28.4072 22.2907 27.669 22.2907 26.8513C22.2907 26.0337 22.4812 25.2994 22.8622 24.6485C23.2512 23.9975 23.7712 23.4895 24.4221 23.1243C25.081 22.7592 25.8033 22.5766 26.5892 22.5766C27.3751 22.5766 28.0935 22.7592 28.7444 23.1243C29.4033 23.4895 29.9193 23.9975 30.2924 24.6485C30.6734 25.2994 30.864 26.0337 30.864 26.8513C30.864 27.669 30.6734 28.4072 30.2924 29.0661C29.9114 29.717 29.3954 30.2251 28.7444 30.5902C28.0935 30.9554 27.3751 31.138 26.5892 31.138ZM26.5892 29.2804C27.256 29.2804 27.7879 29.0582 28.1848 28.6136C28.5897 28.1691 28.7921 27.5816 28.7921 26.8513C28.7921 26.1131 28.5897 25.5256 28.1848 25.089C27.7879 24.6445 27.256 24.4222 26.5892 24.4222C25.9145 24.4222 25.3747 24.6405 24.9698 25.0771C24.5729 25.5137 24.3745 26.1051 24.3745 26.8513C24.3745 27.5896 24.5729 28.181 24.9698 28.6255C25.3747 29.0621 25.9145 29.2804 26.5892 29.2804Z" fill="currentColor"/>
<path d="M35.1284 22.6957C36.0095 22.6957 36.7795 22.8703 37.4384 23.2196C38.0973 23.5689 38.6053 24.061 38.9625 24.6961C39.3277 25.3232 39.5103 26.0496 39.5103 26.8751C39.5103 27.6928 39.3277 28.4191 38.9625 29.0542C38.6053 29.6892 38.0933 30.1814 37.4265 30.5307C36.7676 30.88 36.0016 31.0546 35.1284 31.0546H31.9967V22.6957H35.1284ZM34.9974 29.2923C35.7674 29.2923 36.3667 29.082 36.7954 28.6612C37.224 28.2405 37.4384 27.6452 37.4384 26.8751C37.4384 26.1051 37.224 25.5058 36.7954 25.0771C36.3667 24.6485 35.7674 24.4341 34.9974 24.4341H34.0329V29.2923H34.9974Z" fill="currentColor"/>
<path d="M42.6486 22.6957V27.6967C42.6486 28.1969 42.7716 28.5819 43.0177 28.8518C43.2638 29.1217 43.625 29.2566 44.1013 29.2566C44.5776 29.2566 44.9427 29.1217 45.1967 28.8518C45.4508 28.5819 45.5778 28.1969 45.5778 27.6967V22.6957H47.6139V27.6848C47.6139 28.431 47.4552 29.0621 47.1376 29.5781C46.8201 30.0941 46.3914 30.4831 45.8516 30.745C45.3198 31.007 44.7244 31.138 44.0655 31.138C43.4067 31.138 42.8153 31.011 42.2914 30.7569C41.7754 30.495 41.3666 30.106 41.0649 29.59C40.7633 29.0661 40.6124 28.431 40.6124 27.6848V22.6957H42.6486Z" fill="currentColor"/>
<path d="M48.6984 26.8632C48.6984 26.0377 48.877 25.3034 49.2343 24.6604C49.5915 24.0094 50.0876 23.5054 50.7227 23.1482C51.3657 22.783 52.092 22.6004 52.9017 22.6004C53.894 22.6004 54.7434 22.8624 55.4499 23.3863C56.1564 23.9102 56.6287 24.6247 56.8669 25.5296H54.6283C54.4616 25.1803 54.2234 24.9144 53.9138 24.7318C53.6122 24.5492 53.2669 24.458 52.8779 24.458C52.2508 24.458 51.7427 24.6763 51.3538 25.1129C50.9648 25.5495 50.7703 26.1329 50.7703 26.8632C50.7703 27.5936 50.9648 28.177 51.3538 28.6136C51.7427 29.0502 52.2508 29.2685 52.8779 29.2685C53.2669 29.2685 53.6122 29.1772 53.9138 28.9946C54.2234 28.8121 54.4616 28.5461 54.6283 28.1969H56.8669C56.6287 29.1018 56.1564 29.8163 55.4499 30.3402C54.7434 30.8562 53.894 31.1142 52.9017 31.1142C52.092 31.1142 51.3657 30.9355 50.7227 30.5783C50.0876 30.2132 49.5915 29.7091 49.2343 29.0661C48.877 28.4231 48.6984 27.6888 48.6984 26.8632Z" fill="currentColor"/>
<path d="M64.127 22.6957V24.327H61.9122V31.0546H59.8761V24.327H57.6613V22.6957H64.127Z" fill="currentColor"/>
<rect x="2.15743" y="13.4843" width="67.2502" height="26.746" stroke="currentColor" stroke-width="1.01505"/>
<path d="M29.8648 59.7759H26.745L26.2449 61.2524H24.1135L27.138 52.8935H29.4956L32.5201 61.2524H30.3649L29.8648 59.7759ZM29.3408 58.2041L28.3049 55.144L27.2809 58.2041H29.3408Z" fill="currentColor"/>
<path d="M37.7034 61.2524L35.9649 58.097H35.4767V61.2524H33.4406V52.8935H36.858C37.5169 52.8935 38.0765 53.0086 38.5369 53.2388C39.0053 53.469 39.3546 53.7865 39.5848 54.1914C39.815 54.5883 39.9301 55.0328 39.9301 55.525C39.9301 56.0807 39.7713 56.5768 39.4538 57.0134C39.1442 57.45 38.6838 57.7596 38.0725 57.9422L40.0015 61.2524H37.7034ZM35.4767 56.6562H36.7389C37.112 56.6562 37.3899 56.5649 37.5724 56.3823C37.763 56.1997 37.8582 55.9418 37.8582 55.6083C37.8582 55.2908 37.763 55.0408 37.5724 54.8582C37.3899 54.6756 37.112 54.5843 36.7389 54.5843H35.4767V56.6562Z" fill="currentColor"/>
<path d="M40.8629 57.061C40.8629 56.2355 41.0416 55.5012 41.3988 54.8582C41.756 54.2073 42.2521 53.7032 42.8872 53.346C43.5302 52.9808 44.2565 52.7982 45.0662 52.7982C46.0585 52.7982 46.9079 53.0602 47.6144 53.5841C48.3209 54.108 48.7932 54.8225 49.0314 55.7274H46.7928C46.6261 55.3781 46.3879 55.1122 46.0784 54.9296C45.7767 54.7471 45.4314 54.6558 45.0424 54.6558C44.4153 54.6558 43.9073 54.8741 43.5183 55.3107C43.1293 55.7473 42.9348 56.3307 42.9348 57.061C42.9348 57.7914 43.1293 58.3748 43.5183 58.8114C43.9073 59.248 44.4153 59.4663 45.0424 59.4663C45.4314 59.4663 45.7767 59.375 46.0784 59.1925C46.3879 59.0099 46.6261 58.7439 46.7928 58.3947H49.0314C48.7932 59.2996 48.3209 60.0141 47.6144 60.538C46.9079 61.054 46.0585 61.312 45.0662 61.312C44.2565 61.312 43.5302 61.1333 42.8872 60.7761C42.2521 60.411 41.756 59.9069 41.3988 59.2639C41.0416 58.6209 40.8629 57.8866 40.8629 57.061Z" fill="currentColor"/>
<path d="M57.518 52.8935V61.2524H55.4818V57.8112H52.3144V61.2524H50.2783V52.8935H52.3144V56.168H55.4818V52.8935H57.518Z" fill="currentColor"/>
<path d="M61.024 52.8935V61.2524H58.9879V52.8935H61.024Z" fill="currentColor"/>
<path d="M70.3465 52.8935L67.3816 61.2524H64.8334L61.8685 52.8935H64.0356L66.1075 59.2044L68.1913 52.8935H70.3465Z" fill="currentColor"/>
<path d="M73.2337 54.5248V56.2156H75.9604V57.7874H73.2337V59.6211H76.3177V61.2524H71.1975V52.8935H76.3177V54.5248H73.2337Z" fill="currentColor"/>
<rect x="18.9383" y="43.6821" width="62.554" height="26.746" stroke="currentColor" stroke-width="1.01505"/>
</svg>
